<svg xmlns="http://www.w3.org/2000/svg" viewBox="0 0 846 120">
    <path d="M0 0h846v120H0z" />
    <path d="M682.09 33v9.281h-8.965v6.75h8.965v18c0 2.485.316 4.606.95 6.363.655 1.758 1.581 3.2 2.777 4.325 1.171 1.148 2.578 1.992 4.218 2.53 1.664.54 3.493.81 5.485.81 1.078 0 2.156-.06 3.234-.176a32.263 32.263 0 0 0 3.164-.422 22.407 22.407 0 0 0 2.813-.703c.89-.282 1.664-.61 2.32-.985l-.95-6.293c-.421.118-.948.235-1.581.352a34.83 34.83 0 0 1-1.969.316 53.96 53.96 0 0 1-2.285.317c-.774.07-1.523.105-2.25.105-1.008 0-1.934-.117-2.777-.351a5.035 5.035 0 0 1-2.18-1.23c-.586-.54-1.043-1.266-1.371-2.18-.328-.938-.492-2.11-.492-3.516V49.03h14.238v-6.75h-14.238V33h-9.106zm-380.43 8.578c-2.46 0-4.688.317-6.68.95-1.969.609-3.644 1.452-5.027 2.53-1.383 1.055-2.45 2.286-3.2 3.692a9.593 9.593 0 0 0-1.09 4.465c0 1.617.364 3.047 1.09 4.289.727 1.219 1.747 2.285 3.06 3.199 1.288.938 2.847 1.746 4.675 2.426 1.828.656 3.856 1.207 6.082 1.652 1.758.328 3.211.668 4.36 1.02 1.171.351 2.109.726 2.812 1.125.703.421 1.184.879 1.441 1.37.282.47.422 1.02.422 1.653 0 .586-.14 1.137-.422 1.652-.28.493-.691.938-1.23 1.336-.633.446-1.465.797-2.496 1.055-1.008.258-2.203.387-3.586.387-1.055 0-2.098-.106-3.129-.317A8.783 8.783 0 0 1 296 73.008a5.985 5.985 0 0 1-1.969-1.864c-.516-.773-.82-1.71-.914-2.812h-8.719c0 1.57.375 3.117 1.125 4.64.774 1.524 1.887 2.871 3.34 4.043 1.453 1.219 3.258 2.203 5.414 2.953 2.156.727 4.64 1.09 7.453 1.09 2.508 0 4.793-.281 6.856-.844 2.086-.585 3.855-1.382 5.308-2.39 1.453-1.031 2.578-2.25 3.375-3.656.797-1.407 1.196-2.953 1.196-4.64 0-1.782-.387-3.317-1.16-4.606-.774-1.29-1.864-2.403-3.27-3.34-1.383-.914-3.047-1.664-4.992-2.25-1.946-.61-4.067-1.114-6.364-1.512-1.64-.258-2.988-.55-4.043-.879-1.054-.328-1.886-.703-2.496-1.125-.633-.398-1.078-.844-1.336-1.336a3.946 3.946 0 0 1-.351-1.652c0-.61.14-1.184.422-1.723a4.495 4.495 0 0 1 1.265-1.406c.586-.445 1.336-.785 2.25-1.02.938-.257 2.028-.386 3.27-.386 1.383 0 2.578.176 3.586.527 1.007.352 1.828.82 2.46 1.406a5.178 5.178 0 0 1 1.126 1.653c.257.586.386 1.218.386 1.898h9.07c0-1.734-.386-3.34-1.16-4.816-.75-1.5-1.84-2.801-3.27-3.903-1.429-1.078-3.175-1.922-5.237-2.53-2.063-.634-4.383-.95-6.961-.95zm43.559 0c-2.555 0-4.945.48-7.172 1.441a17.271 17.271 0 0 0-5.765 3.973c-1.641 1.735-2.93 3.809-3.868 6.223-.914 2.39-1.37 5.062-1.37 8.015v1.407c0 2.578.456 4.992 1.37 7.242a16.997 16.997 0 0 0 3.903 5.8c1.687 1.665 3.703 2.977 6.047 3.938 2.367.938 4.992 1.406 7.875 1.406 3.68 0 6.843-.714 9.492-2.144 2.672-1.453 4.629-3.082 5.87-4.887l-4.675-4.816c-1.148 1.476-2.625 2.601-4.43 3.375a14.308 14.308 0 0 1-5.695 1.16c-1.453 0-2.789-.234-4.008-.703a10.434 10.434 0 0 1-3.199-1.969 10.154 10.154 0 0 1-2.144-2.777c-.516-1.031-.926-2.344-1.23-3.938v-.14h26.12v-3.868c0-2.765-.375-5.296-1.125-7.593-.75-2.32-1.851-4.301-3.305-5.942-1.476-1.64-3.28-2.918-5.414-3.832-2.11-.914-4.535-1.37-7.277-1.37zm52.945 0c-2.602 0-4.98.621-7.137 1.863-2.156 1.22-4.007 2.895-5.554 5.028l-.07-.88-.387-5.308h-8.473v38.04h9.105V57.151c.422-1.101.973-2.062 1.653-2.883a8.582 8.582 0 0 1 2.426-2.074c.82-.515 1.77-.902 2.847-1.16 1.078-.258 2.285-.387 3.621-.387 1.22 0 2.473.082 3.762.246a31.57 31.57 0 0 1 3.902.668l1.336-9.035c-.75-.258-1.757-.48-3.023-.668s-2.602-.281-4.008-.281zm33.188 0c-2.93 0-5.496.504-7.7 1.512-2.202 1.008-4.042 2.379-5.519 4.113-1.5 1.758-2.625 3.797-3.375 6.117s-1.125 4.805-1.125 7.453v1.125c0 2.649.375 5.133 1.125 7.453.774 2.32 1.899 4.348 3.375 6.083 1.477 1.734 3.317 3.105 5.52 4.113 2.226 1.008 4.804 1.511 7.734 1.511 2.156 0 4.196-.34 6.117-1.019 1.946-.703 3.645-1.664 5.098-2.883a13.192 13.192 0 0 0 3.48-4.254c.868-1.664 1.29-3.457 1.266-5.379h-8.578c.023.938-.164 1.793-.562 2.567a5.918 5.918 0 0 1-1.653 1.933c-.703.54-1.511.961-2.426 1.266a9.056 9.056 0 0 1-2.882.457c-1.664 0-3.047-.328-4.149-.984a7.573 7.573 0 0 1-2.566-2.672c-.68-1.102-1.149-2.356-1.406-3.762a24.918 24.918 0 0 1-.387-4.43v-1.125c0-1.5.129-2.953.387-4.359.28-1.43.75-2.695 1.406-3.797s1.523-1.98 2.601-2.637c1.079-.68 2.438-1.02 4.079-1.02 1.125 0 2.156.188 3.093.563a7.41 7.41 0 0 1 2.426 1.547 6.386 6.386 0 0 1 1.512 2.285c.375.868.55 1.793.527 2.778h8.578c.024-2.18-.363-4.16-1.16-5.942a12.797 12.797 0 0 0-3.305-4.605c-1.43-1.266-3.129-2.25-5.097-2.953-1.97-.703-4.114-1.055-6.434-1.055zm42.75 0c-2.812 0-5.32.492-7.523 1.477-2.203.984-4.055 2.343-5.555 4.078-1.547 1.734-2.719 3.785-3.516 6.152-.797 2.344-1.195 4.899-1.195 7.664v.738c0 2.79.398 5.368 1.195 7.735.797 2.344 1.97 4.383 3.516 6.117 1.5 1.734 3.352 3.094 5.555 4.078 2.226.961 4.757 1.442 7.593 1.442 2.813 0 5.32-.48 7.524-1.442 2.203-.984 4.066-2.344 5.59-4.078 1.5-1.734 2.648-3.773 3.445-6.117.797-2.367 1.195-4.945 1.195-7.735v-.738c0-2.765-.398-5.32-1.195-7.664-.797-2.367-1.945-4.418-3.445-6.152-1.547-1.735-3.422-3.094-5.625-4.078-2.203-.985-4.723-1.477-7.559-1.477zm47.18 0c-1.5 0-2.918.211-4.254.633a13.247 13.247 0 0 0-3.691 1.828 13.872 13.872 0 0 0-1.934 1.617 15.283 15.283 0 0 0-1.652 1.969l-.563-5.344h-8.226v38.04h9.105V53.25a9.034 9.034 0 0 1 1.195-1.583 7.543 7.543 0 0 1 1.477-1.265 7.66 7.66 0 0 1 2.215-1.02c.844-.234 1.77-.351 2.777-.351 1.172 0 2.215.117 3.13.351.937.234 1.734.656 2.39 1.266.656.586 1.16 1.394 1.511 2.426.352 1.007.528 2.285.528 3.832V80.32h9.07V56.766c0-2.72-.316-5.04-.95-6.961-.632-1.922-1.522-3.493-2.671-4.711a10.51 10.51 0 0 0-4.184-2.672c-1.593-.563-3.351-.844-5.273-.844zm39.691 0c-2.93 0-5.496.504-7.7 1.512-2.202 1.008-4.042 2.379-5.519 4.113-1.5 1.758-2.625 3.797-3.375 6.117s-1.125 4.805-1.125 7.453v1.125c0 2.649.375 5.133 1.125 7.453.774 2.32 1.899 4.348 3.375 6.083 1.477 1.734 3.317 3.105 5.52 4.113 2.226 1.008 4.805 1.511 7.734 1.511 2.156 0 4.196-.34 6.117-1.019 1.946-.703 3.645-1.664 5.098-2.883a13.192 13.192 0 0 0 3.48-4.254c.868-1.664 1.29-3.457 1.266-5.379h-8.578c.024.938-.164 1.793-.562 2.567a5.918 5.918 0 0 1-1.653 1.933c-.703.54-1.511.961-2.425 1.266a9.056 9.056 0 0 1-2.883.457c-1.664 0-3.047-.328-4.149-.984a7.573 7.573 0 0 1-2.566-2.672c-.68-1.102-1.148-2.356-1.406-3.762a24.918 24.918 0 0 1-.387-4.43v-1.125c0-1.5.129-2.953.387-4.359.281-1.43.75-2.695 1.406-3.797a7.574 7.574 0 0 1 2.602-2.637c1.078-.68 2.437-1.02 4.078-1.02 1.125 0 2.156.188 3.093.563a7.41 7.41 0 0 1 2.426 1.547 6.385 6.385 0 0 1 1.512 2.285c.375.868.55 1.793.527 2.778h8.578c.024-2.18-.363-4.16-1.16-5.942a12.797 12.797 0 0 0-3.305-4.605c-1.43-1.266-3.128-2.25-5.097-2.953-1.97-.703-4.114-1.055-6.434-1.055zm43.488 0c-2.555 0-4.945.48-7.172 1.441a17.271 17.271 0 0 0-5.766 3.973c-1.64 1.735-2.93 3.809-3.867 6.223-.914 2.39-1.37 5.062-1.37 8.015v1.407c0 2.578.456 4.992 1.37 7.242a16.998 16.998 0 0 0 3.903 5.8c1.687 1.665 3.703 2.977 6.046 3.938 2.368.938 4.993 1.406 7.875 1.406 3.68 0 6.844-.714 9.493-2.144 2.672-1.453 4.629-3.082 5.87-4.887l-4.675-4.816c-1.148 1.476-2.625 2.601-4.43 3.375a14.308 14.308 0 0 1-5.695 1.16c-1.453 0-2.79-.234-4.008-.703a10.434 10.434 0 0 1-3.199-1.969 10.154 10.154 0 0 1-2.144-2.777c-.516-1.031-.926-2.344-1.231-3.938v-.14h26.121v-3.868c0-2.765-.375-5.296-1.125-7.593-.75-2.32-1.852-4.301-3.305-5.942-1.476-1.64-3.28-2.918-5.414-3.832-2.11-.914-4.535-1.37-7.277-1.37zm44.93 0c-1.219 0-2.367.129-3.445.387a12.054 12.054 0 0 0-2.883 1.09 11.2 11.2 0 0 0-1.969 1.336 10.692 10.692 0 0 0-1.687 1.722l-.352-3.832h-8.367v52.664h9.07v-18c.469.492.95.95 1.442 1.371.492.399 1.019.762 1.582 1.09.937.516 1.957.914 3.058 1.195 1.102.282 2.309.422 3.621.422 2.39 0 4.512-.492 6.364-1.476 1.851-.985 3.41-2.344 4.675-4.078 1.243-1.711 2.192-3.75 2.848-6.118.656-2.367.984-4.922.984-7.664v-.773c0-2.86-.328-5.473-.984-7.84-.656-2.39-1.617-4.441-2.883-6.152a13.274 13.274 0 0 0-4.676-3.938c-1.851-.937-3.984-1.406-6.398-1.406zm-407.39.703v22.535c0 2.86.316 5.32.95 7.383.655 2.04 1.57 3.715 2.741 5.027a10.048 10.048 0 0 0 4.184 2.918c1.64.61 3.445.914 5.414.914 2.227 0 4.254-.539 6.082-1.617 1.852-1.078 3.41-2.555 4.676-4.43l.527 5.31h8.262V42.28h-9.14v26.824a8.621 8.621 0 0 1-1.126 1.758 6.97 6.97 0 0 1-1.511 1.371c-.68.445-1.477.785-2.39 1.02-.892.234-1.9.351-3.024.351-1.172 0-2.168-.14-2.989-.422a4.265 4.265 0 0 1-2.039-1.476c-.515-.657-.902-1.547-1.16-2.672-.234-1.125-.352-2.508-.352-4.149V42.281h-9.105zm103.15 6.68c1.336 0 2.496.223 3.48.668 1.008.422 1.864.996 2.567 1.723.68.726 1.207 1.593 1.582 2.601a8.346 8.346 0 0 1 .598 3.094v.703h-16.945c.234-1.36.597-2.578 1.09-3.656.515-1.078 1.148-2.004 1.898-2.777a7.25 7.25 0 0 1 2.531-1.758c.984-.399 2.05-.598 3.2-.598zm128.95 0c1.547 0 2.871.316 3.973.95 1.101.632 2.004 1.51 2.707 2.636.68 1.101 1.183 2.379 1.511 3.832.352 1.43.528 2.953.528 4.57v.738c0 1.665-.176 3.223-.528 4.676-.328 1.453-.832 2.719-1.511 3.797-.703 1.125-1.606 2.004-2.707 2.637-1.102.633-2.403.949-3.903.949-1.547 0-2.882-.316-4.007-.95-1.102-.632-2.004-1.51-2.707-2.636-.704-1.078-1.23-2.344-1.582-3.797-.329-1.453-.493-3.011-.493-4.676v-.738c0-1.617.164-3.14.493-4.57.351-1.453.879-2.73 1.582-3.832.703-1.125 1.605-2.004 2.707-2.637 1.101-.633 2.414-.95 3.937-.95zm130.29 0c1.336 0 2.496.223 3.48.668 1.008.422 1.864.996 2.567 1.723.68.726 1.207 1.593 1.582 2.601a8.346 8.346 0 0 1 .598 3.094v.703h-16.945c.234-1.36.597-2.578 1.09-3.656.515-1.078 1.148-2.004 1.898-2.777a7.25 7.25 0 0 1 2.531-1.758c.984-.399 2.05-.598 3.2-.598zm42.539.07c1.477 0 2.73.305 3.762.914 1.054.61 1.922 1.453 2.601 2.531.657 1.079 1.137 2.344 1.442 3.797.328 1.453.492 3 .492 4.641v.738c0 1.64-.152 3.188-.457 4.64-.305 1.454-.785 2.731-1.442 3.833a7.68 7.68 0 0 1-2.566 2.637c-1.055.632-2.309.949-3.762.949-.914 0-1.757-.094-2.53-.281a7.557 7.557 0 0 1-1.97-.844 7.841 7.841 0 0 1-1.582-1.336 8.869 8.869 0 0 1-1.16-1.723V53.144a7.449 7.449 0 0 1 1.266-1.828 7.852 7.852 0 0 1 1.687-1.336 7.586 7.586 0 0 1 1.899-.703 10.215 10.215 0 0 1 2.32-.246zM62.324 14.644c-12.521 0-23.257 4.743-32.209 14.227-8.951 9.486-13.427 20.801-13.427 33.947s3.91 23.523 11.736 31.13c7.827 7.605 17.264 11.409 28.313 11.409 4.07 0 7.497-.343 10.283-1.032 2.787-.659 5.198-1.675 7.231-3.054v-8.684c-1.941 1.126-4.336 2.08-7.184 2.862-2.817.816-6.26 1.222-10.33 1.222-8.609 0-15.62-2.864-21.036-8.592-5.384-5.698-8.074-13.851-8.074-24.461 0-11.49 3.317-21.112 9.953-28.876 6.636-7.795 14.884-11.691 24.745-11.691 9.955 0 17.67 3.115 23.147 9.345 5.51 6.197 8.265 13.63 8.265 22.303 0 6.978-1.128 12.519-3.382 16.622-2.223 4.067-5.102 6.087-8.639 6.056-2.411 0-4.274-.673-5.587-2.021-.823-.86-1.242-2.184-1.267-3.96l5.51-31.276h-9.876l-5.434 30.62c-1.072 1.701-2.364 3.085-3.875 4.157-1.512 1.04-3.15 1.56-4.914 1.56-2.048 0-3.56-.52-4.537-1.56-.944-1.04-1.166-2.977-.66-5.81l5.101-28.967H46.35l-5.387 30.478c-.848 4.851-.361 8.347 1.465 10.49 1.827 2.11 4.584 3.165 8.27 3.165 2.835 0 5.387-.567 7.655-1.7 2.267-1.166 4.142-2.71 5.622-4.631l-.85 5.387h17.419c6.605 0 12.05-1.707 16.338-7.342 4.288-5.634 6.432-12.992 6.432-22.07 0-10.955-3.754-20.236-11.267-27.843-7.484-7.605-17.39-11.409-29.724-11.409z" fill="#ffffff" />
</svg>
